<mxfile host="Electron" modified="2023-08-20T03:19:10.089Z" agent="Mozilla/5.0 (Windows NT 10.0; Win64; x64) AppleWebKit/537.36 (KHTML, like Gecko) draw.io/21.6.5 Chrome/114.0.5735.243 Electron/25.3.1 Safari/537.36" etag="PPiVzM1JSlBr65mupk9M" version="21.6.5" type="device">
  <diagram name="第 1 页" id="6EpNOs71wD-LE0JsUNNG">
    <mxGraphModel dx="1434" dy="844" grid="1" gridSize="10" guides="1" tooltips="1" connect="1" arrows="1" fold="1" page="1" pageScale="1" pageWidth="827" pageHeight="1169" math="0" shadow="0">
      <root>
        <mxCell id="0" />
        <mxCell id="1" parent="0" />
        <mxCell id="yQXdHAB3HaQRqg-twoxt-1" value="" style="rounded=0;whiteSpace=wrap;html=1;fillColor=#e1d5e7;strokeColor=#9673a6;" vertex="1" parent="1">
          <mxGeometry x="60" y="150" width="530" height="220" as="geometry" />
        </mxCell>
        <mxCell id="RcLxhhVI1aJgHu6D6Pdr-1" value="" style="rounded=0;whiteSpace=wrap;html=1;fillColor=#dae8fc;strokeColor=#6c8ebf;" parent="1" vertex="1">
          <mxGeometry x="70" y="180" width="510" height="180" as="geometry" />
        </mxCell>
        <mxCell id="RcLxhhVI1aJgHu6D6Pdr-5" value="" style="rounded=0;whiteSpace=wrap;html=1;fillColor=#d5e8d4;strokeColor=#82b366;" parent="1" vertex="1">
          <mxGeometry x="87" y="210" width="130" height="140" as="geometry" />
        </mxCell>
        <mxCell id="RcLxhhVI1aJgHu6D6Pdr-6" value="" style="rounded=0;whiteSpace=wrap;html=1;fillColor=#ffe6cc;strokeColor=#d79b00;" parent="1" vertex="1">
          <mxGeometry x="104" y="250" width="100" height="90" as="geometry" />
        </mxCell>
        <mxCell id="RcLxhhVI1aJgHu6D6Pdr-7" value="" style="rounded=0;whiteSpace=wrap;html=1;fillColor=#bac8d3;strokeColor=#23445d;" parent="1" vertex="1">
          <mxGeometry x="116" y="280" width="76" height="50" as="geometry" />
        </mxCell>
        <mxCell id="RcLxhhVI1aJgHu6D6Pdr-8" value="&lt;b&gt;&lt;font style=&quot;font-size: 16px;&quot;&gt;uart_driver&lt;/font&gt;&lt;/b&gt;" style="text;html=1;strokeColor=none;fillColor=none;align=center;verticalAlign=middle;whiteSpace=wrap;rounded=0;" parent="1" vertex="1">
          <mxGeometry x="270" y="180" width="100" height="30" as="geometry" />
        </mxCell>
        <mxCell id="RcLxhhVI1aJgHu6D6Pdr-9" value="&lt;b&gt;&lt;font style=&quot;font-size: 16px;&quot;&gt;uart_state&lt;/font&gt;&lt;/b&gt;" style="text;html=1;strokeColor=none;fillColor=none;align=center;verticalAlign=middle;whiteSpace=wrap;rounded=0;" parent="1" vertex="1">
          <mxGeometry x="100" y="210" width="100" height="30" as="geometry" />
        </mxCell>
        <mxCell id="RcLxhhVI1aJgHu6D6Pdr-10" value="&lt;b&gt;&lt;font style=&quot;font-size: 16px;&quot;&gt;uart_port&lt;/font&gt;&lt;/b&gt;" style="text;html=1;strokeColor=none;fillColor=none;align=center;verticalAlign=middle;whiteSpace=wrap;rounded=0;" parent="1" vertex="1">
          <mxGeometry x="102" y="250" width="100" height="30" as="geometry" />
        </mxCell>
        <mxCell id="RcLxhhVI1aJgHu6D6Pdr-11" value="&lt;b&gt;&lt;font style=&quot;font-size: 16px;&quot;&gt;uart_ops&lt;/font&gt;&lt;/b&gt;" style="text;html=1;strokeColor=none;fillColor=none;align=center;verticalAlign=middle;whiteSpace=wrap;rounded=0;" parent="1" vertex="1">
          <mxGeometry x="104" y="290" width="100" height="30" as="geometry" />
        </mxCell>
        <mxCell id="yQXdHAB3HaQRqg-twoxt-2" value="&lt;b&gt;&lt;font style=&quot;font-size: 16px;&quot;&gt;tty_driver&lt;/font&gt;&lt;/b&gt;" style="text;html=1;strokeColor=none;fillColor=none;align=center;verticalAlign=middle;whiteSpace=wrap;rounded=0;" vertex="1" parent="1">
          <mxGeometry x="270" y="150" width="100" height="30" as="geometry" />
        </mxCell>
        <mxCell id="yQXdHAB3HaQRqg-twoxt-3" value="" style="rounded=0;whiteSpace=wrap;html=1;fillColor=#d5e8d4;strokeColor=#82b366;" vertex="1" parent="1">
          <mxGeometry x="229" y="210" width="130" height="140" as="geometry" />
        </mxCell>
        <mxCell id="yQXdHAB3HaQRqg-twoxt-4" value="" style="rounded=0;whiteSpace=wrap;html=1;fillColor=#ffe6cc;strokeColor=#d79b00;" vertex="1" parent="1">
          <mxGeometry x="246" y="250" width="100" height="90" as="geometry" />
        </mxCell>
        <mxCell id="yQXdHAB3HaQRqg-twoxt-5" value="" style="rounded=0;whiteSpace=wrap;html=1;fillColor=#bac8d3;strokeColor=#23445d;" vertex="1" parent="1">
          <mxGeometry x="258" y="280" width="76" height="50" as="geometry" />
        </mxCell>
        <mxCell id="yQXdHAB3HaQRqg-twoxt-6" value="&lt;b&gt;&lt;font style=&quot;font-size: 16px;&quot;&gt;uart_state&lt;/font&gt;&lt;/b&gt;" style="text;html=1;strokeColor=none;fillColor=none;align=center;verticalAlign=middle;whiteSpace=wrap;rounded=0;" vertex="1" parent="1">
          <mxGeometry x="242" y="210" width="100" height="30" as="geometry" />
        </mxCell>
        <mxCell id="yQXdHAB3HaQRqg-twoxt-7" value="&lt;b&gt;&lt;font style=&quot;font-size: 16px;&quot;&gt;uart_port&lt;/font&gt;&lt;/b&gt;" style="text;html=1;strokeColor=none;fillColor=none;align=center;verticalAlign=middle;whiteSpace=wrap;rounded=0;" vertex="1" parent="1">
          <mxGeometry x="244" y="250" width="100" height="30" as="geometry" />
        </mxCell>
        <mxCell id="yQXdHAB3HaQRqg-twoxt-8" value="&lt;b&gt;&lt;font style=&quot;font-size: 16px;&quot;&gt;uart_ops&lt;/font&gt;&lt;/b&gt;" style="text;html=1;strokeColor=none;fillColor=none;align=center;verticalAlign=middle;whiteSpace=wrap;rounded=0;" vertex="1" parent="1">
          <mxGeometry x="246" y="290" width="100" height="30" as="geometry" />
        </mxCell>
        <mxCell id="yQXdHAB3HaQRqg-twoxt-9" value="" style="rounded=0;whiteSpace=wrap;html=1;fillColor=#d5e8d4;strokeColor=#82b366;" vertex="1" parent="1">
          <mxGeometry x="430" y="210" width="130" height="140" as="geometry" />
        </mxCell>
        <mxCell id="yQXdHAB3HaQRqg-twoxt-10" value="" style="rounded=0;whiteSpace=wrap;html=1;fillColor=#ffe6cc;strokeColor=#d79b00;" vertex="1" parent="1">
          <mxGeometry x="447" y="250" width="100" height="90" as="geometry" />
        </mxCell>
        <mxCell id="yQXdHAB3HaQRqg-twoxt-11" value="" style="rounded=0;whiteSpace=wrap;html=1;fillColor=#bac8d3;strokeColor=#23445d;" vertex="1" parent="1">
          <mxGeometry x="459" y="280" width="76" height="50" as="geometry" />
        </mxCell>
        <mxCell id="yQXdHAB3HaQRqg-twoxt-12" value="&lt;b&gt;&lt;font style=&quot;font-size: 16px;&quot;&gt;uart_state&lt;/font&gt;&lt;/b&gt;" style="text;html=1;strokeColor=none;fillColor=none;align=center;verticalAlign=middle;whiteSpace=wrap;rounded=0;" vertex="1" parent="1">
          <mxGeometry x="443" y="210" width="100" height="30" as="geometry" />
        </mxCell>
        <mxCell id="yQXdHAB3HaQRqg-twoxt-13" value="&lt;b&gt;&lt;font style=&quot;font-size: 16px;&quot;&gt;uart_port&lt;/font&gt;&lt;/b&gt;" style="text;html=1;strokeColor=none;fillColor=none;align=center;verticalAlign=middle;whiteSpace=wrap;rounded=0;" vertex="1" parent="1">
          <mxGeometry x="445" y="250" width="100" height="30" as="geometry" />
        </mxCell>
        <mxCell id="yQXdHAB3HaQRqg-twoxt-14" value="&lt;b&gt;&lt;font style=&quot;font-size: 16px;&quot;&gt;uart_ops&lt;/font&gt;&lt;/b&gt;" style="text;html=1;strokeColor=none;fillColor=none;align=center;verticalAlign=middle;whiteSpace=wrap;rounded=0;" vertex="1" parent="1">
          <mxGeometry x="447" y="290" width="100" height="30" as="geometry" />
        </mxCell>
        <mxCell id="yQXdHAB3HaQRqg-twoxt-15" value="&lt;b&gt;&lt;font style=&quot;font-size: 21px;&quot;&gt;...&lt;/font&gt;&lt;/b&gt;" style="text;strokeColor=none;fillColor=none;align=left;verticalAlign=middle;spacingLeft=4;spacingRight=4;overflow=hidden;points=[[0,0.5],[1,0.5]];portConstraint=eastwest;rotatable=0;whiteSpace=wrap;html=1;" vertex="1" parent="1">
          <mxGeometry x="380" y="265" width="30" height="30" as="geometry" />
        </mxCell>
      </root>
    </mxGraphModel>
  </diagram>
</mxfile>
